<?xml version="1.0" encoding="utf-8"?>
<!-- Generator: Adobe Illustrator 24.2.3, SVG Export Plug-In . SVG Version: 6.00 Build 0)  -->
<svg version="1.1" id="Layer_1" xmlns="http://www.w3.org/2000/svg" xmlns:xlink="http://www.w3.org/1999/xlink" x="0px" y="0px"
	 viewBox="0 0 215.6 369.5" style="enable-background:new 0 0 215.6 369.5;" xml:space="preserve">
<g>
	<path d="M201.1,3.3c8.5,4,17.1,9.9,13.8,18c-2.1,5.2-15.7,39.4-33.4,77.7c-16,34.8-33.7,66.1-34.3,67.1c-1.2,2.1-7.2,3.6-7.2,3.6
		s-7.3,20.9-16.3,69.6s-17,156.6-91.2,124.3S29.1,257.9,65.3,216s47.2-59.1,47.2-59.1s-1.8-3,0.3-7.3c1-2.1,15.5-37.8,31.8-73.1
		c17-36.9,31.3-66.9,33.9-72.4C179.7,1.5,187.3-3.2,201.1,3.3z M71,241.2C51.6,278.7,43.1,301,57,306.1c13.9,5.1,30-25.6,40.6-48.8
		s27-77.7,29.2-84.3c2.3-6.6,2-10.4-1.9-9.5C119.4,164.7,90.3,203.6,71,241.2z M32.1,267c-12.2,18.7-16.6,46.4,18.1,60.5
		s47.8-23.2,54.9-45.9s17.6-80.5,17.6-80.5s-13.8,53.2-22.4,74.4s-33.1,48-57.4,36.3c-19-9.1-2-36.2,7.6-56.3S99,190.7,99,190.7
		C80.8,207,44.3,248.2,32.1,267z M48.3,344.2c32.9,13.5,47.8-22,51.7-35.6c-9.2,15.2-21,44.7-60.3,24.9s-13.4-65.9-13.4-65.9
		C7.6,292.9,8.7,327.8,48.3,344.2z M7.3,300.7c-13.9,42.2,21,62.8,58.4,61.7c37.4-1.1,46.1-70.6,51.4-103.9
		c-3.3,22.2-16.6,61.6-26.3,78.4s-41.7,19.2-58,11.6C9.2,337.6,7,319.7,7.3,300.7z"/>
</g>
</svg>
