<?xml version="1.0" encoding="utf-8"?>
<!-- Generator: Adobe Illustrator 24.2.3, SVG Export Plug-In . SVG Version: 6.00 Build 0)  -->
<svg version="1.1" id="Layer_1" xmlns="http://www.w3.org/2000/svg" xmlns:xlink="http://www.w3.org/1999/xlink" x="0px" y="0px"
	 viewBox="0 0 604.6 397.3" style="enable-background:new 0 0 604.6 397.3;" xml:space="preserve">
<g>
	<path d="M589,3.6c9.1,4.3,18.4,10.7,14.9,19.4c-2.2,5.6-16.9,42.3-35.9,83.5c-17.2,37.4-36.3,71.1-36.9,72.2
		c-1.3,2.3-7.7,3.8-7.7,3.8s-7.8,22.4-17.5,74.8s-18.3,168.3-98.1,133.7s-3.7-113.7,35.1-158.7s50.8-63.5,50.8-63.5
		s-1.9-3.2,0.3-7.8c1.1-2.2,16.7-40.6,34.2-78.6c18.3-39.7,33.6-71.9,36.4-77.9C566,1.6,574.1-3.5,589,3.6z M449,259.3
		c-20.8,40.4-30,64.3-15,69.8c15,5.5,32.3-27.5,43.6-52.4s29-83.6,31.4-90.7c2.5-7.1,2.2-11.1-2.1-10.2
		C501.1,177.1,469.8,218.9,449,259.3z M407.3,287c-13.2,20.1-17.9,49.8,19.5,65.1s51.4-24.9,59-49.3c7.6-24.4,18.9-86.5,18.9-86.5
		s-14.8,57.2-24.1,80c-9.3,22.8-35.6,51.6-61.7,39c-20.4-9.8-2.2-38.9,8.2-60.6c10.3-21.6,52.2-69.8,52.2-69.8
		C459.6,222.6,420.4,266.9,407.3,287z M424.7,370c35.3,14.5,51.4-23.7,55.6-38.3c-9.9,16.3-22.6,48.1-64.9,26.8S401,287.7,401,287.7
		C380.9,315,382.1,352.5,424.7,370z M380.6,323.2c-15,45.3,22.6,67.6,62.8,66.3s49.5-75.9,55.2-111.7c-3.6,23.9-17.9,66.2-28.3,84.3
		s-44.8,20.6-62.3,12.5C382.6,362.9,380.3,343.7,380.6,323.2z"/>
</g>
<g>
	<path d="M69.3,214.9h1.3l35.2-110.5H140L89.9,249.8H50.2L0,104.3h34.2L69.3,214.9z"/>
	<path d="M150.3,111.3c0-8.4,7.4-15.3,16.3-15.3c9,0,16.4,6.9,16.4,15.3c0,8.5-7.4,15.3-16.4,15.3
		C157.7,126.7,150.3,119.8,150.3,111.3z M151.4,140.7h30.3v109.1h-30.3V140.7z"/>
	<path d="M263.8,173.5c-1.5-7-7.7-12.8-18.3-12.8c-9.4,0-16.8,4.3-16.7,10.8c-0.1,5.3,3.7,8.7,13.9,10.9l19.7,4
		c21.2,4.3,31.5,13.8,31.5,29.5c-0.1,21.5-20.3,35.9-48.6,35.9c-28.9,0-46.7-12.9-49.5-33.7l29.8-1.6c1.8,8.9,9,13.5,19.8,13.5
		c10.6,0,17.6-4.6,17.8-11.1c-0.1-5.5-4.5-8.9-14-10.9l-18.9-3.8c-21.3-4.3-31.6-14.8-31.5-31.2c-0.1-21,18.3-34,46.2-34
		c27.6,0,43.8,12.4,46.5,32.5L263.8,173.5z"/>
	<path d="M308.1,140.7H338V159h1.3c4-8.9,12.8-19.7,31-19.7c23.9,0,44.2,18.6,44.2,56.1c0,36.5-19.4,56.2-44.3,56.2
		c-17.6,0-26.8-10.2-31-19.2h-0.9v58.4h-30.3V140.7z M360.7,227.5c14.8,0,22.9-13.2,22.9-32.2c0-18.9-8-31.9-22.9-31.9
		c-14.7,0-22.9,12.4-22.9,31.9S346.2,227.5,360.7,227.5z"/>
</g>
</svg>
