<?xml version="1.0" encoding="utf-8"?>
<!-- Generator: Adobe Illustrator 24.2.3, SVG Export Plug-In . SVG Version: 6.00 Build 0)  -->
<svg version="1.1" id="Layer_1" xmlns="http://www.w3.org/2000/svg" xmlns:xlink="http://www.w3.org/1999/xlink" x="0px" y="0px"
	 viewBox="0 0 535.5 194.8" style="enable-background:new 0 0 535.5 194.8;" xml:space="preserve">
<g>
	<path d="M527.9,1.7c4.4,2.1,8.9,5.2,7.2,9.4c-1.1,2.7-8.2,20.5-17.4,40.5c-8.4,18.1-17.6,34.5-17.9,35c-0.6,1.1-3.7,1.9-3.7,1.9
		s-3.8,10.9-8.5,36.3c-4.7,25.4-8.9,81.7-47.6,64.9s-1.8-55.2,17.1-77c18.9-21.9,24.6-30.8,24.6-30.8s-0.9-1.6,0.2-3.8
		c0.5-1.1,8.1-19.7,16.6-38.1c8.9-19.3,16.3-34.9,17.7-37.8C516.8,0.8,520.7-1.7,527.9,1.7z M460,125.9
		c-10.1,19.6-14.5,31.2-7.3,33.9c7.3,2.7,15.7-13.4,21.2-25.4c5.5-12.1,14.1-40.6,15.3-44c1.2-3.4,1.1-5.4-1-4.9
		C485.3,86,470.1,106.3,460,125.9z M439.7,139.3c-6.4,9.8-8.7,24.2,9.4,31.6c18.1,7.4,24.9-12.1,28.6-23.9c3.7-11.8,9.2-42,9.2-42
		s-7.2,27.8-11.7,38.8s-17.3,25-30,18.9c-9.9-4.8-1.1-18.9,4-29.4s25.3-33.9,25.3-33.9C465.1,108,446.1,129.5,439.7,139.3z
		 M448.2,179.6c17.2,7.1,24.9-11.5,27-18.6c-4.8,7.9-11,23.3-31.5,13c-20.5-10.3-7-34.4-7-34.4C426.9,152.9,427.5,171.1,448.2,179.6
		z M426.8,156.9c-7.3,22,11,32.8,30.5,32.2s24-36.8,26.8-54.2c-1.7,11.6-8.7,32.1-13.7,40.9c-5.1,8.8-21.8,10-30.3,6.1
		C427.8,176.2,426.6,166.8,426.8,156.9z"/>
</g>
<g>
	<path d="M69.3,118.9h1.3L105.9,8.4H140L89.9,153.9H50.2L0,8.4h34.2L69.3,118.9z"/>
	<path d="M150.3,15.3c0-8.4,7.4-15.3,16.3-15.3c9,0,16.4,6.9,16.4,15.3c0,8.5-7.4,15.3-16.4,15.3C157.7,30.7,150.3,23.8,150.3,15.3z
		 M151.4,44.8h30.3v109.1h-30.3V44.8z"/>
	<path d="M263.8,77.6c-1.5-7-7.7-12.8-18.3-12.8c-9.4,0-16.8,4.3-16.7,10.8c-0.1,5.3,3.7,8.7,13.9,10.9l19.7,4
		c21.2,4.3,31.5,13.8,31.5,29.5c-0.1,21.5-20.3,35.9-48.6,35.9c-28.9,0-46.7-12.9-49.5-33.7l29.8-1.6c1.8,8.9,9,13.5,19.8,13.5
		c10.6,0,17.6-4.6,17.8-11.1c-0.1-5.5-4.5-8.9-14-10.9l-18.9-3.8c-21.3-4.3-31.6-14.8-31.5-31.2c-0.1-21,18.3-34,46.2-34
		c27.6,0,43.8,12.4,46.5,32.5L263.8,77.6z"/>
	<path d="M308.1,44.8H338v18.3h1.3c4-8.9,12.8-19.7,31-19.7c23.9,0,44.2,18.6,44.2,56.1c0,36.5-19.4,56.2-44.3,56.2
		c-17.6,0-26.8-10.2-31-19.2h-0.9v58.4h-30.3V44.8z M360.7,131.6c14.8,0,22.9-13.2,22.9-32.2c0-18.9-8-31.9-22.9-31.9
		c-14.7,0-22.9,12.4-22.9,31.9S346.2,131.6,360.7,131.6z"/>
</g>
</svg>
