<?xml version="1.0" encoding="utf-8"?>
<!-- Generator: Adobe Illustrator 24.2.3, SVG Export Plug-In . SVG Version: 6.00 Build 0)  -->
<svg version="1.1" id="Layer_1" xmlns="http://www.w3.org/2000/svg" xmlns:xlink="http://www.w3.org/1999/xlink" x="0px" y="0px"
	 viewBox="0 0 414.6 194.7" style="enable-background:new 0 0 414.6 194.7;" xml:space="preserve">
<g>
	<path d="M69.3,118.8h1.3L105.9,8.3H140L89.9,153.8H50.2L0,8.3h34.2L69.3,118.8z"/>
	<path d="M150.3,15.3c0-8.4,7.4-15.3,16.3-15.3c9,0,16.4,6.9,16.4,15.3c0,8.5-7.4,15.3-16.4,15.3C157.7,30.6,150.3,23.7,150.3,15.3z
		 M151.4,44.7h30.3v109.1h-30.3V44.7z"/>
	<path d="M263.8,77.5c-1.5-7-7.7-12.8-18.3-12.8c-9.4,0-16.8,4.3-16.7,10.8c-0.1,5.3,3.7,8.7,13.9,10.9l19.7,4
		c21.2,4.3,31.5,13.8,31.5,29.5c-0.1,21.5-20.3,35.9-48.6,35.9c-28.9,0-46.7-12.9-49.5-33.7l29.8-1.6c1.8,8.9,9,13.5,19.8,13.5
		c10.6,0,17.6-4.6,17.8-11.1c-0.1-5.5-4.5-8.9-14-10.9l-18.9-3.8c-21.3-4.3-31.6-14.8-31.5-31.2c-0.1-21,18.3-34,46.2-34
		c27.6,0,43.8,12.4,46.5,32.5L263.8,77.5z"/>
	<path d="M308.1,44.7H338V63h1.3c4-8.9,12.8-19.7,31-19.7c23.9,0,44.2,18.6,44.2,56.1c0,36.5-19.4,56.2-44.3,56.2
		c-17.6,0-26.8-10.2-31-19.2h-0.9v58.4h-30.3V44.7z M360.7,131.5c14.8,0,22.9-13.2,22.9-32.2c0-18.9-8-31.9-22.9-31.9
		c-14.7,0-22.9,12.4-22.9,31.9S346.2,131.5,360.7,131.5z"/>
</g>
</svg>
